<svg enable-background="new 0 0 256 256" viewBox="0 0 256 256" xmlns="http://www.w3.org/2000/svg"><path d="m244 38h-232c-2.209 0-4 1.791-4 4v39.5c0 2.209 1.791 4 4 4h14c1.105 0 2 .895 2 2v81c0 1.104-.895 2-2 2h-14c-2.209 0-4 1.791-4 4v39.5c0 2.209 1.791 4 4 4h232c2.209 0 4-1.791 4-4v-172c0-2.209-1.791-4-4-4zm-224 17.58c-3.082 0-5.58-2.498-5.58-5.58s2.498-5.58 5.58-5.58 5.58 2.498 5.58 5.58-2.498 5.58-5.58 5.58zm0 156c-3.082 0-5.58-2.498-5.58-5.58s2.498-5.58 5.58-5.58 5.58 2.498 5.58 5.58-2.498 5.58-5.58 5.58zm216 0c-3.082 0-5.58-2.498-5.58-5.58s2.498-5.58 5.58-5.58 5.58 2.498 5.58 5.58-2.498 5.58-5.58 5.58zm0-156c-3.082 0-5.58-2.498-5.58-5.58s2.498-5.58 5.58-5.58 5.58 2.498 5.58 5.58-2.498 5.58-5.58 5.58z" fill="#6bdddd"/><path d="m162.021 51c-.769-1.736-2.501-2.95-4.521-2.95-2.734 0-4.95 2.216-4.95 4.95s2.216 4.95 4.95 4.95c2.021 0 3.752-1.214 4.521-2.95h35.41c2.206 0 4-1.794 4-4v-13h-4v13z" fill="#ffea92"/><path d="m204.55 83.885c0 2.734 2.216 4.95 4.95 4.95s4.95-2.216 4.95-4.95c0-2.021-1.214-3.752-2.95-4.521v-8.197h10.507c.769 1.736 2.501 2.95 4.521 2.95 2.734 0 4.95-2.216 4.95-4.95s-2.216-4.95-4.95-4.95c-2.021 0-3.752 1.214-4.521 2.95h-10.507v-29.167h-4v41.364c-1.736.769-2.95 2.5-2.95 4.521z" fill="#ffea92"/><path d="m197.432 201h-35.41c-.769-1.736-2.501-2.95-4.521-2.95-2.734 0-4.95 2.216-4.95 4.95s2.216 4.95 4.95 4.95c2.021 0 3.752-1.214 4.521-2.95h35.41v13h4v-13c0-2.206-1.795-4-4-4z" fill="#ffea92"/><path d="m214.45 172.115c0-2.734-2.216-4.95-4.95-4.95s-4.95 2.216-4.95 4.95c0 2.021 1.214 3.752 2.95 4.521v41.364h4v-41.364c1.736-.769 2.95-2.5 2.95-4.521z" fill="#ffea92"/><path d="m49.59 172.115c0-2.734-2.216-4.95-4.95-4.95s-4.95 2.216-4.95 4.95c0 2.021 1.214 3.752 2.95 4.521v41.364h4v-41.364c1.735-.769 2.95-2.5 2.95-4.521z" fill="#ffea92"/><path d="m76.961 204.742c2.206 0 4-1.794 4-4v-15.105c1.736-.769 2.95-2.501 2.95-4.521 0-2.734-2.216-4.95-4.95-4.95s-4.95 2.216-4.95 4.95c0 2.021 1.214 3.752 2.95 4.521v15.105h-20.771c-2.206 0-4 1.794-4 4v13.258h4v-13.258z" fill="#ffea92"/><path d="m174.115 172.115h-72.23c-4.418 0-8-3.582-8-8v-72.23c0-4.418 3.582-8 8-8h72.23c4.418 0 8 3.582 8 8v72.23c0 4.418-3.582 8-8 8z" fill="#a4c9ff"/><path d="m105.885 156.115v-56.23c0-2.209 1.791-4 4-4h56.23c2.209 0 4 1.791 4 4v56.23c0 2.209-1.791 4-4 4h-56.23c-2.209 0-4-1.791-4-4z" fill="#4671c6"/><path d="m94 69.167h-56c-1.105 0-2-.895-2-2v-16c0-1.105.895-2 2-2h56c1.105 0 2 .895 2 2v16c0 1.104-.895 2-2 2z" fill="#e0ebfc"/><path d="m66 65.451c-1.104 0-2-.896-2-2v-8.235c0-1.104.896-2 2-2s2 .896 2 2v8.235c0 1.104-.896 2-2 2z" fill="#3762cc"/><path d="m55.714 65.451c-1.104 0-2-.896-2-2v-8.235c0-1.104.896-2 2-2s2 .896 2 2v8.235c0 1.104-.895 2-2 2z" fill="#3762cc"/><path d="m45.429 65.451c-1.104 0-2-.896-2-2v-8.235c0-1.104.896-2 2-2s2 .896 2 2v8.235c0 1.104-.896 2-2 2z" fill="#3762cc"/><path d="m76.286 65.451c-1.104 0-2-.896-2-2v-8.235c0-1.104.896-2 2-2s2 .896 2 2v8.235c0 1.104-.896 2-2 2z" fill="#3762cc"/><path d="m86.571 65.451c-1.104 0-2-.896-2-2v-8.235c0-1.104.896-2 2-2s2 .896 2 2v8.235c0 1.104-.895 2-2 2z" fill="#3762cc"/><path d="m44.568 118.224v-6c0-1.657 1.343-3 3-3h11.232c1.657 0 3 1.343 3 3v6z" fill="#ffea92"/><path d="m48.684 123.108h9v17.232h-9z" fill="#ffea92" transform="matrix(0 1 -1 0 184.9085 78.5398)"/><path d="m48.684 114.108h9v17.232h-9z" fill="#ffea92" transform="matrix(0 1 -1 0 175.9085 69.5398)"/><path d="m44.568 142.224v-6h17.232v6c0 1.657-1.343 3-3 3h-11.232c-1.657 0-3-1.343-3-3z" fill="#ffea92"/><path d="m234.333 108h-10.667c-1.105 0-2-.895-2-2v-9.667c0-1.105.895-2 2-2h10.667c1.105 0 2 .895 2 2v9.667c0 1.105-.895 2-2 2z" fill="#f9a7a7"/><path d="m234.333 161.667h-10.667c-1.105 0-2-.895-2-2v-33c0-1.105.895-2 2-2h10.667c1.105 0 2 .895 2 2v33c0 1.104-.895 2-2 2z" fill="#ffea92"/><path d="m93.885 147h-12.317c-2.761 0-5 2.239-5 5s2.239 5 5 5h12.317z" fill="#f9cfcf"/><path d="m93.885 123h-12.317c-2.761 0-5 2.239-5 5s2.239 5 5 5h12.317z" fill="#f9cfcf"/><path d="m93.885 99h-12.317c-2.761 0-5 2.239-5 5s2.239 5 5 5h12.317z" fill="#f9cfcf"/><path d="m109 172.115v12.317c0 2.761 2.239 5 5 5s5-2.239 5-5v-12.317z" fill="#f9cfcf"/><path d="m133 172.115v12.317c0 2.761 2.239 5 5 5s5-2.239 5-5v-12.317z" fill="#f9cfcf"/><path d="m157 172.115v12.317c0 2.761 2.239 5 5 5s5-2.239 5-5v-12.317z" fill="#f9cfcf"/><path d="m194.432 147h-12.317v10h12.317c2.761 0 5-2.239 5-5s-2.239-5-5-5z" fill="#f9cfcf"/><path d="m194.432 123h-12.317v10h12.317c2.761 0 5-2.239 5-5s-2.239-5-5-5z" fill="#f9cfcf"/><path d="m194.432 99h-12.317v10h12.317c2.761 0 5-2.239 5-5s-2.239-5-5-5z" fill="#f9cfcf"/><path d="m167 83.885v-12.317c0-2.761-2.239-5-5-5s-5 2.239-5 5v12.317z" fill="#f9cfcf"/><path d="m143 83.885v-12.317c0-2.761-2.239-5-5-5s-5 2.239-5 5v12.317z" fill="#f9cfcf"/><path d="m119 83.885v-12.317c0-2.761-2.239-5-5-5s-5 2.239-5 5v12.317z" fill="#f9cfcf"/><g fill="#3762cc"><path d="m244 220h-232c-3.309 0-6-2.691-6-6v-39.5c0-3.309 2.691-6 6-6h14v-81h-14c-3.309 0-6-2.691-6-6v-39.5c0-3.309 2.691-6 6-6h232c3.309 0 6 2.691 6 6v172c0 3.309-2.691 6-6 6zm-232-47.5c-1.103 0-2 .897-2 2v39.5c0 1.103.897 2 2 2h232c1.103 0 2-.897 2-2v-172c0-1.103-.897-2-2-2h-232c-1.103 0-2 .897-2 2v39.5c0 1.103.897 2 2 2h14c2.206 0 4 1.794 4 4v81c0 2.206-1.794 4-4 4z"/><path d="m20 57.581c-4.18 0-7.58-3.4-7.58-7.581 0-4.18 3.4-7.58 7.58-7.58s7.58 3.4 7.58 7.58-3.4 7.581-7.58 7.581zm0-11.161c-1.974 0-3.58 1.606-3.58 3.58s1.606 3.581 3.58 3.581 3.58-1.606 3.58-3.581-1.606-3.58-3.58-3.58z"/><path d="m20 213.581c-4.18 0-7.58-3.4-7.58-7.581 0-4.18 3.4-7.58 7.58-7.58s7.58 3.4 7.58 7.58-3.4 7.581-7.58 7.581zm0-11.161c-1.974 0-3.58 1.606-3.58 3.58s1.606 3.581 3.58 3.581 3.58-1.606 3.58-3.581-1.606-3.58-3.58-3.58z"/><path d="m236 213.581c-4.18 0-7.58-3.4-7.58-7.581 0-4.18 3.4-7.58 7.58-7.58s7.58 3.4 7.58 7.58-3.4 7.581-7.58 7.581zm0-11.161c-1.974 0-3.58 1.606-3.58 3.58s1.606 3.581 3.58 3.581 3.58-1.606 3.58-3.581-1.606-3.58-3.58-3.58z"/><path d="m236 57.581c-4.18 0-7.58-3.4-7.58-7.581 0-4.18 3.4-7.58 7.58-7.58s7.58 3.4 7.58 7.58-3.4 7.581-7.58 7.581zm0-11.161c-1.974 0-3.58 1.606-3.58 3.58s1.606 3.581 3.58 3.581 3.58-1.606 3.58-3.581-1.606-3.58-3.58-3.58z"/><path d="m61.8 120.224h-17.232c-1.104 0-2-.896-2-2v-6c0-2.757 2.243-5 5-5h11.232c2.757 0 5 2.243 5 5v6c0 1.105-.895 2-2 2zm-15.232-4h13.232v-4c0-.551-.449-1-1-1h-11.232c-.551 0-1 .449-1 1z"/><path d="m61.8 138.224h-17.232c-1.104 0-2-.896-2-2v-9c0-1.104.896-2 2-2h17.232c1.104 0 2 .896 2 2v9c0 1.105-.895 2-2 2zm-15.232-4h13.232v-5h-13.232z"/><path d="m61.8 129.224h-17.232c-1.104 0-2-.896-2-2v-9c0-1.104.896-2 2-2h17.232c1.104 0 2 .896 2 2v9c0 1.105-.895 2-2 2zm-15.232-4h13.232v-5h-13.232z"/><path d="m58.8 147.224h-11.232c-2.757 0-5-2.243-5-5v-6c0-1.104.896-2 2-2h17.232c1.104 0 2 .896 2 2v6c0 2.757-2.243 5-5 5zm-12.232-9v4c0 .551.449 1 1 1h11.232c.551 0 1-.449 1-1v-4z"/><path d="m94 71.167h-56c-2.206 0-4-1.794-4-4v-16c0-2.206 1.794-4 4-4h56c2.206 0 4 1.794 4 4v16c0 2.205-1.794 4-4 4zm-56-20v16h56.002l-.002-16z"/><path d="m174.115 174.115h-72.23c-5.514 0-10-4.486-10-10v-72.23c0-5.514 4.486-10 10-10h72.23c5.514 0 10 4.486 10 10v72.23c0 5.514-4.486 10-10 10zm-72.23-88.23c-3.309 0-6 2.691-6 6v72.23c0 3.309 2.691 6 6 6h72.23c3.309 0 6-2.691 6-6v-72.23c0-3.309-2.691-6-6-6z"/><path d="m166.115 162.115h-56.23c-3.309 0-6-2.691-6-6v-56.23c0-3.309 2.691-6 6-6h56.23c3.309 0 6 2.691 6 6v56.23c0 3.309-2.691 6-6 6zm-56.23-64.23c-1.103 0-2 .897-2 2v56.23c0 1.103.897 2 2 2h56.23c1.103 0 2-.897 2-2v-56.23c0-1.103-.897-2-2-2z"/><path d="m93.885 159h-12.317c-3.86 0-7-3.14-7-7s3.14-7 7-7h12.316c1.104 0 2 .896 2 2v10c.001 1.104-.895 2-1.999 2zm-12.317-10c-1.654 0-3 1.346-3 3s1.346 3 3 3h10.316v-6z"/><path d="m93.885 135h-12.317c-3.86 0-7-3.14-7-7s3.14-7 7-7h12.316c1.104 0 2 .896 2 2v10c.001 1.104-.895 2-1.999 2zm-12.317-10c-1.654 0-3 1.346-3 3s1.346 3 3 3h10.316v-6z"/><path d="m93.885 111h-12.317c-3.86 0-7-3.14-7-7s3.14-7 7-7h12.316c1.104 0 2 .896 2 2v10c.001 1.104-.895 2-1.999 2zm-12.317-10c-1.654 0-3 1.346-3 3s1.346 3 3 3h10.316v-6z"/><path d="m114 191.432c-3.86 0-7-3.14-7-7v-12.316c0-1.104.896-2 2-2h10c1.104 0 2 .896 2 2v12.316c0 3.86-3.14 7-7 7zm-3-17.317v10.316c0 1.654 1.346 3 3 3s3-1.346 3-3v-10.316z"/><path d="m138 191.432c-3.86 0-7-3.14-7-7v-12.316c0-1.104.896-2 2-2h10c1.104 0 2 .896 2 2v12.316c0 3.86-3.14 7-7 7zm-3-17.317v10.316c0 1.654 1.346 3 3 3s3-1.346 3-3v-10.316z"/><path d="m162 191.432c-3.86 0-7-3.14-7-7v-12.316c0-1.104.896-2 2-2h10c1.104 0 2 .896 2 2v12.316c0 3.86-3.14 7-7 7zm-3-17.317v10.316c0 1.654 1.346 3 3 3s3-1.346 3-3v-10.316z"/><path d="m194.432 159h-12.316c-1.104 0-2-.896-2-2v-10c0-1.104.896-2 2-2h12.316c3.86 0 7 3.14 7 7s-3.14 7-7 7zm-10.317-4h10.316c1.654 0 3-1.346 3-3s-1.346-3-3-3h-10.316z"/><path d="m194.432 135h-12.316c-1.104 0-2-.896-2-2v-10c0-1.104.896-2 2-2h12.316c3.86 0 7 3.14 7 7s-3.14 7-7 7zm-10.317-4h10.316c1.654 0 3-1.346 3-3s-1.346-3-3-3h-10.316z"/><path d="m194.432 111h-12.316c-1.104 0-2-.896-2-2v-10c0-1.104.896-2 2-2h12.316c3.86 0 7 3.14 7 7s-3.14 7-7 7zm-10.317-4h10.316c1.654 0 3-1.346 3-3s-1.346-3-3-3h-10.316z"/><path d="m167 85.885h-10c-1.104 0-2-.896-2-2v-12.317c0-3.86 3.14-7 7-7s7 3.14 7 7v12.317c0 1.105-.896 2-2 2zm-8-4h6v-10.317c0-1.654-1.346-3-3-3s-3 1.346-3 3z"/><path d="m143 85.885h-10c-1.104 0-2-.896-2-2v-12.317c0-3.86 3.14-7 7-7s7 3.14 7 7v12.317c0 1.105-.896 2-2 2zm-8-4h6v-10.317c0-1.654-1.346-3-3-3s-3 1.346-3 3z"/><path d="m119 85.885h-10c-1.104 0-2-.896-2-2v-12.317c0-3.86 3.14-7 7-7s7 3.14 7 7v12.317c0 1.105-.896 2-2 2zm-8-4h6v-10.317c0-1.654-1.346-3-3-3s-3 1.346-3 3z"/><path d="m234.333 110h-10.667c-2.206 0-4-1.794-4-4v-9.667c0-2.206 1.794-4 4-4h10.667c2.206 0 4 1.794 4 4v9.667c0 2.206-1.794 4-4 4zm-10.666-13.667v9.667h10.669l-.002-9.667z"/><path d="m234.333 163.667h-10.667c-2.206 0-4-1.794-4-4v-33c0-2.206 1.794-4 4-4h10.667c2.206 0 4 1.794 4 4v33c0 2.205-1.794 4-4 4zm-10.666-37v33h10.669l-.002-33z"/></g></svg>